<?xml version="1.0" encoding="UTF-8"?>
<svg version="1.1" xmlns="http://www.w3.org/2000/svg" width="500" height="387">
<path d="M0 0 C5.1480344 2.01635349 9.32969256 3.06103749 14.8046875 2.12866211 C19.32438765 -0.68088123 20.88626249 -6.09568414 22.8046875 -10.87133789 C24.7846875 -10.87133789 26.7646875 -10.87133789 28.8046875 -10.87133789 C29.58203515 0.12407768 30.04614561 11.10053204 30.30737305 22.11938477 C30.36713582 24.62649411 30.43225452 27.13342324 30.49804688 29.64038086 C30.75546729 39.80568523 30.86025851 49.96004853 30.8046875 60.12866211 C28.1646875 60.12866211 25.5246875 60.12866211 22.8046875 60.12866211 C22.2478125 58.33428711 22.2478125 58.33428711 21.6796875 56.50366211 C14.09520964 34.13647508 1.96838473 18.63917242 -19.1953125 8.12866211 C-33.62133473 1.96643533 -50.54771943 0.38156325 -65.49609375 5.87475586 C-73.10507069 9.4094615 -78.60829436 14.44749569 -82.1953125 22.12866211 C-83.75652292 27.78585717 -83.67618001 32.8849254 -81.2578125 38.26147461 C-75.83123101 47.79789355 -66.58558759 53.07848795 -57 57.82006836 C-56.30813599 58.16400635 -55.61627197 58.50794434 -54.90344238 58.86230469 C-46.58509715 62.96646118 -38.14103467 66.79572437 -29.6953125 70.62866211 C-20.56204731 74.77362877 -11.44669673 78.93595908 -2.46875 83.40991211 C-1.83457153 83.72512817 -1.20039307 84.04034424 -0.54699707 84.3651123 C17.73992009 93.5725879 35.67790673 105.86269966 43.0546875 125.75366211 C47.48975565 140.08650429 46.39006881 154.68910249 40.296875 168.33569336 C37.96254702 172.70491981 35.01859793 176.38269492 31.8046875 180.12866211 C31.19109375 180.93819336 30.5775 181.74772461 29.9453125 182.58178711 C16.80316938 198.21805958 -5.08353043 205.94099952 -24.83398438 207.94335938 C-45.48414209 209.56385872 -63.38172666 205.91256641 -82.96435547 199.81567383 C-85.98585642 198.88521818 -89.01725187 198.01212141 -92.0703125 197.19116211 C-92.93398437 196.95526367 -93.79765625 196.71936523 -94.6875 196.47631836 C-100.50649998 195.66963456 -104.63825876 197.58547837 -109.390625 200.65209961 C-111.49357458 202.20435225 -111.49357458 202.20435225 -113.1953125 205.44116211 C-113.8553125 206.32803711 -114.5153125 207.21491211 -115.1953125 208.12866211 C-117.8353125 208.12866211 -120.4753125 208.12866211 -123.1953125 208.12866211 C-123.1953125 181.72866211 -123.1953125 155.32866211 -123.1953125 128.12866211 C-120.8853125 128.12866211 -118.5753125 128.12866211 -116.1953125 128.12866211 C-115.8034375 129.18053711 -115.4115625 130.23241211 -115.0078125 131.31616211 C-114.73066406 132.04834961 -114.45351562 132.78053711 -114.16796875 133.53491211 C-113.47456359 135.38399253 -112.79651671 137.23886284 -112.12890625 139.09741211 C-103.85903027 161.58710783 -90.94738516 177.98975287 -69.3449707 188.49462891 C-54.40750224 195.32800978 -36.56763754 198.39860379 -20.640625 193.08959961 C-19.83367187 192.77249023 -19.02671875 192.45538086 -18.1953125 192.12866211 C-17.34710938 191.81155273 -16.49890625 191.49444336 -15.625 191.16772461 C-7.91747605 187.84429685 -1.19693302 182.02080172 2.02734375 174.14038086 C4.10529209 166.0896363 3.23070404 159.69272968 -0.7109375 152.41772461 C-6.93251708 142.82339399 -16.56451298 137.23533367 -26.63671875 132.29272461 C-27.32598953 131.95138992 -28.01526031 131.61005524 -28.72541809 131.25837708 C-35.51326567 127.92374514 -42.40023519 124.82051453 -49.30752563 121.7432251 C-109.50254195 94.85317311 -109.50254195 94.85317311 -121.0703125 65.87866211 C-125.31956389 51.192187 -123.35172623 35.44092676 -116.10546875 22.07006836 C-105.28622777 5.40976476 -88.28378796 -5.24860675 -69.00317383 -9.34790039 C-44.75546116 -13.90429269 -22.58442515 -8.96394722 0 0 Z " fill="#00A54F" transform="translate(254.1953125,87.871337890625)"/>
<path d="M0 0 C5.14908944 2.01676673 9.32894825 3.05932135 14.8046875 2.12866211 C19.44998698 -0.68296652 20.40265432 -5.90049298 21.8046875 -10.87133789 C24.1146875 -10.87133789 26.4246875 -10.87133789 28.8046875 -10.87133789 C29.6598806 4.89674397 30.08663185 20.65332249 30.3671875 36.44116211 C30.41053178 38.75431833 30.45415014 41.06746943 30.49804688 43.38061523 C30.60340644 48.96324272 30.70543471 54.54592287 30.8046875 60.12866211 C28.1646875 60.12866211 25.5246875 60.12866211 22.8046875 60.12866211 C22.4128125 59.07678711 22.0209375 58.02491211 21.6171875 56.94116211 C21.33746094 56.20897461 21.05773437 55.47678711 20.76953125 54.72241211 C20.0840881 52.87976331 19.43397754 51.02380106 18.80859375 49.15991211 C12.17743529 30.25307967 -0.62847092 17.2652049 -18.48828125 8.51538086 C-33.32288282 2.14157867 -50.04092416 0.23719251 -65.4921875 5.86303711 C-72.85386016 9.30983182 -79.0880356 14.51272224 -82.5078125 22.00366211 C-84.12272628 29.34417927 -83.46370422 34.13733869 -79.84375 40.68725586 C-69.91320697 55.39481367 -48.8264043 62.33482371 -33.1953125 69.19116211 C30.46393164 97.24673482 30.46393164 97.24673482 42.8046875 126.12866211 C47.27098506 138.66693933 46.33552876 155.12591108 40.8046875 167.12866211 C31.53164526 185.70057678 13.97914609 197.39339674 -5.1953125 204.12866211 C-34.12550585 211.91639029 -60.71131227 207.47285559 -88.5078125 197.99975586 C-95.28772576 195.80219676 -100.56796648 195.47690183 -107.0703125 198.67163086 C-110.15325196 200.78548457 -112.18681433 203.46025736 -114.296875 206.51928711 C-116.1953125 208.12866211 -116.1953125 208.12866211 -123.1953125 208.12866211 C-123.1953125 181.72866211 -123.1953125 155.32866211 -123.1953125 128.12866211 C-120.8853125 128.12866211 -118.5753125 128.12866211 -116.1953125 128.12866211 C-115.669375 129.83022461 -115.669375 129.83022461 -115.1328125 131.56616211 C-110.93581528 144.00025669 -106.22400506 155.62120816 -98.1953125 166.12866211 C-97.60363281 166.91499023 -97.01195312 167.70131836 -96.40234375 168.51147461 C-85.00526165 182.46014225 -66.04848301 192.96994541 -48.1953125 195.12866211 C-37.97807873 195.85782742 -27.83370072 195.98089818 -18.1953125 192.12866211 C-17.33679688 191.79995117 -16.47828125 191.47124023 -15.59375 191.13256836 C-7.61739697 187.65044445 -2.59103224 182.17143916 1.8046875 174.75366211 C4.13000161 166.32439845 3.33666725 159.89052254 -0.80859375 152.22241211 C-2.1146349 150.09695675 -2.1146349 150.09695675 -3.86328125 148.47241211 C-5.1953125 147.12866211 -5.1953125 147.12866211 -5.1953125 145.12866211 C-5.76362793 144.86520996 -6.33194336 144.60175781 -6.91748047 144.33032227 C-9.35351246 143.04520442 -11.43066924 141.54456515 -13.640625 139.90209961 C-19.46225741 135.78456743 -25.62412574 132.76667907 -32.0703125 129.75366211 C-33.25633057 129.1905835 -34.44234863 128.62750488 -35.66430664 128.04736328 C-42.61358507 124.75517487 -49.6073791 121.56704071 -56.6328125 118.44116211 C-85.52993016 105.57834882 -85.52993016 105.57834882 -96.1953125 97.12866211 C-97.0925 96.46608398 -97.9896875 95.80350586 -98.9140625 95.12084961 C-111.08592202 85.79131993 -120.39232475 73.08750088 -122.9140625 57.71459961 C-124.56504693 42.53471495 -121.61341881 28.67840816 -112.15625 16.50366211 C-82.6487722 -17.69581746 -38.50016217 -15.28103634 0 0 Z " fill="#00A54F" transform="translate(455.1953125,87.871337890625)"/>
<path d="M0 0 C33.99 0 67.98 0 103 0 C103 2.31 103 4.62 103 7 C101.88882813 7.02578125 100.77765625 7.0515625 99.6328125 7.078125 C85.52577239 7.47008095 85.52577239 7.47008095 73.5 14.25 C69.02265766 22.45846095 69.71496321 31.5057201 69.74121094 40.57641602 C69.7384977 42.15242677 69.7349349 43.72843626 69.73059082 45.30444336 C69.72150491 49.56673226 69.72499515 53.8289239 69.73134899 58.09121442 C69.7364278 62.56023745 69.7317124 67.02925239 69.72857666 71.49827576 C69.72494287 79.00073739 69.72972109 86.50315959 69.73925781 94.00561523 C69.7501452 102.67051494 69.74661236 111.33532054 69.735605 120.00021797 C69.72652013 127.45096597 69.7252526 134.90168569 69.73048234 142.35243744 C69.73359493 146.79759668 69.73403087 151.24271174 69.72740936 155.68786812 C69.72161893 159.86661039 69.72566381 164.04523164 69.73719788 168.22396088 C69.73983522 169.75456733 69.73909523 171.28518402 69.73467255 172.81578636 C69.72917899 174.91061654 69.73609676 177.00506282 69.74603271 179.09986877 C69.74678677 180.27029504 69.74754082 181.4407213 69.74831772 182.64661503 C70.14794564 187.97121023 70.89587912 191.84330193 74.625 195.75 C83.26948861 201.99210104 92.76020681 201.66255227 103 202 C103 204.31 103 206.62 103 209 C69.01 209 35.02 209 0 209 C0 206.69 0 204.38 0 202 C1.11117188 201.97421875 2.22234375 201.9484375 3.3671875 201.921875 C17.65973691 201.63963845 17.65973691 201.63963845 29.5 194.4375 C33.53705663 185.18591189 33.28603569 175.17172201 33.24291992 165.24804688 C33.24399533 163.79630956 33.24593783 162.34457267 33.24867249 160.89283752 C33.25348275 156.98167484 33.24591299 153.07062785 33.23571944 149.15947914 C33.22687312 145.04736102 33.22869767 140.93524582 33.2290802 136.82312012 C33.22814634 129.92030933 33.21950054 123.01754275 33.20581055 116.11474609 C33.19008807 108.15822663 33.18481264 100.2017555 33.1855461 92.24522161 C33.18622403 83.73945995 33.17926951 75.23371667 33.1700995 66.72796059 C33.16797838 64.29230808 33.16725972 61.85665859 33.16686058 59.42100525 C33.16584847 55.57957663 33.15968182 51.73818782 33.14969444 47.89677238 C33.14679915 46.49523602 33.14553796 45.09369507 33.14612198 43.69215584 C33.95040505 28.14041472 33.95040505 28.14041472 29 14 C22.6152119 9.13462983 15.4666591 7.71532517 7.625 7.375 C6.88894531 7.33632812 6.15289062 7.29765625 5.39453125 7.2578125 C3.59672594 7.16442002 1.79839892 7.0811629 0 7 C0 4.69 0 2.38 0 0 Z " fill="#00A54F" transform="translate(2,82)"/>
<path d="M0 0 C6.87575847 5.22132652 12.65955874 14.21309689 13.95703125 22.71875 C14.9529231 35.47565031 12.71285017 45.45957577 4.53515625 55.45703125 C-1.51374176 62.18282976 -10.0913763 66.25626957 -19.109375 66.95703125 C-30.51361982 67.19913254 -39.18752328 65.11371598 -48.0390625 57.703125 C-55.66035403 50.15611507 -59.35296891 41.09507738 -60.0390625 30.51171875 C-60.05341318 20.25098264 -56.3368717 10.92359903 -49.35546875 3.40625 C-35.63849067 -9.45179018 -15.45754201 -9.69421373 0 0 Z " fill="#FECC2E" transform="translate(76.04296875,6.28125)"/>
<path d="M0 0 C0 7.26 0 14.52 0 22 C2.64 20.68 5.28 19.36 8 18 C13.2782867 17.05794358 17.66208379 17.35493325 22.5 19.6875 C25.837411 22.77460518 27.77902873 25.33065737 28.38476562 29.90673828 C28.39185547 30.95071777 28.39894531 31.99469727 28.40625 33.0703125 C28.42816406 34.21371094 28.45007813 35.35710937 28.47265625 36.53515625 C28.49094492 38.93619746 28.5091737 41.33723914 28.52734375 43.73828125 C28.54925781 44.87910156 28.57117188 46.01992188 28.59375 47.1953125 C28.60083984 48.23703613 28.60792969 49.27875977 28.61523438 50.35205078 C28.80963805 52.99798184 28.80963805 52.99798184 30.23242188 54.88232422 C32.61361456 56.38800103 33.93693881 56.12599526 36.6875 55.6875 C37.49574219 55.56761719 38.30398437 55.44773437 39.13671875 55.32421875 C39.75160156 55.21722656 40.36648437 55.11023438 41 55 C41.02898097 50.89584811 41.0467922 46.79172247 41.0625 42.6875 C41.07506836 40.93663086 41.07506836 40.93663086 41.08789062 39.15039062 C41.09111328 38.03212891 41.09433594 36.91386719 41.09765625 35.76171875 C41.10289307 34.73006592 41.10812988 33.69841309 41.11352539 32.63549805 C41.11635 29.89053726 41.11635 29.89053726 40 27 C37.49552484 25.78130071 37.49552484 25.78130071 35 25 C35 24.01 35 23.02 35 22 C36.91405367 21.32586789 38.83136026 20.6609668 40.75 20 C41.81734375 19.62875 42.8846875 19.2575 43.984375 18.875 C47 18 47 18 51 18 C51.495 19.98 51.495 19.98 52 22 C53.11375 21.34 54.2275 20.68 55.375 20 C60.26736991 17.5754627 64.62238313 17.13292497 70 18 C73.82709993 19.34020166 76.41542025 21.22056034 78.875 24.5 C80.6778526 28.50633911 81.14610141 32.04260776 81.31640625 36.421875 C81.35830078 37.44667969 81.40019531 38.47148437 81.44335938 39.52734375 C81.48267578 40.59082031 81.52199219 41.65429688 81.5625 42.75 C81.60568359 43.82894531 81.64886719 44.90789062 81.69335938 46.01953125 C81.79928989 48.67956428 81.90136421 51.33968812 82 54 C83.98 54.99 85.96 55.98 88 57 C88 57.99 88 58.98 88 60 C80.08 60 72.16 60 64 60 C64.33 58.68 64.66 57.36 65 56 C65.639375 55.87625 66.27875 55.7525 66.9375 55.625 C67.618125 55.41875 68.29875 55.2125 69 55 C70.80013962 51.39972077 70.22753861 47.21443564 70.25 43.25 C70.270625 42.35539062 70.29125 41.46078125 70.3125 40.5390625 C70.34352841 35.27974673 70.0318989 31.5053451 67 27 C63.4913604 24.66090693 62.12910567 24.58708943 58 25 C55.25724795 26.04142702 55.25724795 26.04142702 53 28 C52.31054068 30.79412175 52.31054068 30.79412175 52.51171875 33.98046875 C52.52783203 35.14384766 52.54394531 36.30722656 52.56054688 37.50585938 C52.60244141 38.72080078 52.64433594 39.93574219 52.6875 41.1875 C52.71005859 42.41404297 52.73261719 43.64058594 52.75585938 44.90429688 C52.81486947 47.93741559 52.89715408 50.96810222 53 54 C55.31 54.99 57.62 55.98 60 57 C60 57.99 60 58.98 60 60 C44.16 60 28.32 60 12 60 C12 59.01 12 58.02 12 57 C13.98 56.01 15.96 55.02 18 54 C18.05827558 50.4375692 18.09368885 46.87526181 18.125 43.3125 C18.14175781 42.30509766 18.15851563 41.29769531 18.17578125 40.25976562 C18.18222656 39.28330078 18.18867188 38.30683594 18.1953125 37.30078125 C18.20578613 36.40528564 18.21625977 35.50979004 18.22705078 34.5871582 C17.97139112 31.67401254 17.33247568 29.60045888 16 27 C12.3946611 24.59644073 9.20638975 24.24914732 5 25 C2.79538543 26.08185133 2.79538543 26.08185133 1 28 C0.44784083 30.80151029 0.44784083 30.80151029 0.609375 33.98046875 C0.62226563 35.14384766 0.63515625 36.30722656 0.6484375 37.50585938 C0.69871094 39.32827148 0.69871094 39.32827148 0.75 41.1875 C0.77707031 43.02731445 0.77707031 43.02731445 0.8046875 44.90429688 C0.85188876 47.93697759 0.91772323 50.96810087 1 54 C2.98 54.99 4.96 55.98 7 57 C6.67 57.99 6.34 58.98 6 60 C-1.59 60 -9.18 60 -17 60 C-17.495 58.515 -17.495 58.515 -18 57 C-17.030625 56.54625 -16.06125 56.0925 -15.0625 55.625 C-11.92920418 54.34213779 -11.92920418 54.34213779 -11 52 C-10.91065594 50.58026727 -10.88241022 49.15642209 -10.88647461 47.73388672 C-10.88655014 46.85312469 -10.88662567 45.97236267 -10.88670349 45.06491089 C-10.89186478 44.11278717 -10.89702606 43.16066345 -10.90234375 42.1796875 C-10.90446617 40.71899338 -10.90446617 40.71899338 -10.90663147 39.22879028 C-10.91224027 36.11082927 -10.92479427 32.9929394 -10.9375 29.875 C-10.94251387 27.76432395 -10.94707697 25.65364678 -10.95117188 23.54296875 C-10.96221255 18.36195479 -10.97895927 13.18098248 -11 8 C-13.97 7.505 -13.97 7.505 -17 7 C-17 6.01 -17 5.02 -17 4 C-15.10751181 3.32389577 -13.2108398 2.65949561 -11.3125 2 C-10.25675781 1.62875 -9.20101562 1.2575 -8.11328125 0.875 C-5 0 -5 0 0 0 Z " fill="#FFCD2F" transform="translate(144,309)"/>
<path d="M0 0 C2.75 1 2.75 1 4.125 3.0625 C4.33125 3.701875 4.5375 4.34125 4.75 5 C6.5753125 4.2575 6.5753125 4.2575 8.4375 3.5 C11.99308013 2.05366232 13.61518677 2 17.75 2 C18.08 13.88 18.41 25.76 18.75 38 C20.73 38.99 22.71 39.98 24.75 41 C24.75 41.99 24.75 42.98 24.75 44 C16.83 44 8.91 44 0.75 44 C0.75 42.68 0.75 41.36 0.75 40 C3.72 39.505 3.72 39.505 6.75 39 C6.77898097 34.89584811 6.7967922 30.79172247 6.8125 26.6875 C6.82506836 24.93663086 6.82506836 24.93663086 6.83789062 23.15039062 C6.84111328 22.03212891 6.84433594 20.91386719 6.84765625 19.76171875 C6.85289307 18.73006592 6.85812988 17.69841309 6.86352539 16.63549805 C6.86635 13.89053726 6.86635 13.89053726 5.75 11 C2.96473551 9.74674715 2.96473551 9.74674715 -0.3125 8.8125 C-1.41722656 8.46832031 -2.52195312 8.12414062 -3.66015625 7.76953125 C-4.51480469 7.51558594 -5.36945313 7.26164062 -6.25 7 C-5.90775391 7.8353125 -5.90775391 7.8353125 -5.55859375 8.6875 C-3.4260297 14.34883595 -2.79629618 18.08827113 -4.25 24 C-6.5046246 28.68961916 -9.13020681 31.12812035 -13.75390625 33.26953125 C-17.93090577 34.49190826 -22.16142248 34.49105729 -26.4921875 34.53125 C-27.40226562 34.6859375 -28.31234375 34.840625 -29.25 35 C-30.44932445 36.97762992 -30.44932445 36.97762992 -31.25 39 C-30.16114502 39.02187378 -30.16114502 39.02187378 -29.05029297 39.04418945 C-25.74134268 39.11894859 -22.43337048 39.2155179 -19.125 39.3125 C-17.41183594 39.34633789 -17.41183594 39.34633789 -15.6640625 39.38085938 C-5.03390351 39.72077725 -5.03390351 39.72077725 -0.25 43 C1.89081795 45.60621315 1.74959667 47.02218336 1.6875 50.4375 C0.53193571 54.82864431 -0.6247351 56.28105133 -4.25 59 C-10.33772532 61.71773452 -16.13663655 62.51864145 -22.75 62.4375 C-23.99402588 62.43157837 -23.99402588 62.43157837 -25.26318359 62.42553711 C-31.43515712 62.28026415 -37.62241252 61.62758748 -42.25 57 C-42.375 54.5 -42.375 54.5 -42.25 52 C-41.755 51.505 -41.755 51.505 -41.25 51 C-36.72394095 51.1847371 -34.20693866 51.87110492 -30.5625 54.5625 C-25.42713868 58.00938649 -20.23031374 57.78537636 -14.25 57 C-11.65034295 56.23102581 -9.64437806 55.30602439 -7.25 54 C-7.59444881 51.52733235 -7.59444881 51.52733235 -8.25 49 C-10.54662083 47.85168958 -11.98286531 47.8326768 -14.5390625 47.75390625 C-15.39886719 47.72103516 -16.25867188 47.68816406 -17.14453125 47.65429688 C-18.94130423 47.59389034 -20.73818214 47.53651581 -22.53515625 47.48242188 C-28.05421813 47.26510369 -32.93849663 46.52906915 -38.25 45 C-39 41.8125 -39 41.8125 -39.25 38 C-37.3125 35.0625 -37.3125 35.0625 -35.25 33 C-36.26451596 30.8148887 -37.16629035 29.09040643 -38.8125 27.3125 C-41.03963009 23.72972551 -41.36311481 20.1781782 -41.25 16 C-39.68180821 10.77269404 -37.48150042 7.44424453 -33.25 4 C-26.94530265 0.92096176 -19.58249805 1.13149488 -13 3.25 C-9.19079401 4.45604242 -9.19079401 4.45604242 -6.125 2.0625 C-3.25 0 -3.25 0 0 0 Z M-30.25 11 C-31.8870364 17.13888649 -31.21670465 22.32558872 -28.25 28 C-24.73175489 30.34549674 -23.39224306 30.57991403 -19.25 30 C-16.33261554 27.99024626 -14.67752574 26.37962294 -13.61328125 22.9453125 C-12.69032937 17.20911696 -13.62849263 13.15261793 -16.25 8 C-18.46321832 6.22942535 -19.92069049 6.05910683 -22.6875 5.5625 C-26.58643936 6.22817257 -27.90579077 7.87438769 -30.25 11 Z " fill="#FFCD2F" transform="translate(393.25,325)"/>
<path d="M0 0 C0.495 7.425 0.495 7.425 1 15 C-0.32 15.33 -1.64 15.66 -3 16 C-3.25394531 15.44570313 -3.50789063 14.89140625 -3.76953125 14.3203125 C-4.11371094 13.59585937 -4.45789062 12.87140625 -4.8125 12.125 C-5.14894531 11.40570313 -5.48539063 10.68640625 -5.83203125 9.9453125 C-6.99467097 7.69457194 -6.99467097 7.69457194 -10 6 C-13.63 6 -17.26 6 -21 6 C-21 21.51 -21 37.02 -21 53 C-18.36 53.99 -15.72 54.98 -13 56 C-13 56.99 -13 57.98 -13 59 C-22.57 59 -32.14 59 -42 59 C-42 57.68 -42 56.36 -42 55 C-40.865625 54.731875 -39.73125 54.46375 -38.5625 54.1875 C-36.7990625 53.5996875 -36.7990625 53.5996875 -35 53 C-33.67763218 49.03289653 -33.85730394 45.23284326 -33.8671875 41.09765625 C-33.86623077 40.22354599 -33.86527405 39.34943573 -33.86428833 38.44883728 C-33.86360794 36.60041227 -33.86545241 34.75198487 -33.86962891 32.90356445 C-33.87497272 30.07693089 -33.86968246 27.2504567 -33.86328125 24.42382812 C-33.86394218 22.62760382 -33.86522366 20.83137961 -33.8671875 19.03515625 C-33.86516327 18.19026138 -33.86313904 17.34536652 -33.86105347 16.47486877 C-33.86420563 15.6840239 -33.86735779 14.89317902 -33.87060547 14.07836914 C-33.87140106 13.3857045 -33.87219666 12.69303986 -33.87301636 11.97938538 C-34.00739465 9.88473425 -34.43153168 8.01668889 -35 6 C-36.74991334 5.97284617 -38.49994945 5.95353449 -40.25 5.9375 C-41.22453125 5.92589844 -42.1990625 5.91429687 -43.203125 5.90234375 C-46.71248185 5.97789972 -46.71248185 5.97789972 -50 7 C-51.1375213 9.08034294 -51.1375213 9.08034294 -51.75 11.5625 C-51.99234375 12.38878906 -52.2346875 13.21507812 -52.484375 14.06640625 C-52.65453125 14.70449219 -52.8246875 15.34257812 -53 16 C-53.99 16 -54.98 16 -56 16 C-56 11.05 -56 6.1 -56 1 C-37.32532335 0.33643281 -18.68993283 -0.1592892 0 0 Z " fill="#FFCD2F" transform="translate(56,310)"/>
<path d="M0 0 C5.09620539 3.01237564 8.70841667 7.93775001 10.5625 13.5 C11.23273805 20.91656859 11.18050605 27.39459936 6.5625 33.5 C2.58529991 37.65798192 -1.28927584 40.30005706 -7.046875 40.8359375 C-14.67133654 41.00220588 -21.01559865 41.0694298 -27.4375 36.5 C-31.82968119 31.99223509 -33.72275022 27.46403284 -33.75 21.1875 C-33.59242366 15.00884868 -32.89561169 10.19221757 -28.6328125 5.5234375 C-20.70914914 -1.7424123 -10.31283667 -4.49942295 0 0 Z M-19.51171875 6.22265625 C-23.35782303 10.7708891 -23.66610975 17.31851427 -23.25 23.109375 C-22.21059301 28.64050507 -20.19070204 32.41136397 -15.625 35.875 C-12.21813256 36.8483907 -9.84458385 36.39660101 -6.4375 35.5 C-3.31844953 32.92339309 -1.7193632 31.3455896 -0.4375 27.5 C0.16828655 19.68436043 0.75297798 11.87926487 -4.4375 5.5 C-9.78198988 1.32869082 -14.36361657 1.94711376 -19.51171875 6.22265625 Z " fill="#FFCD2F" transform="translate(266.4375,328.5)"/>
<path d="M0 0 C4.83153644 2.87445839 8.42710649 7.13341025 10.5 12.375 C10.80078125 15.6171875 10.80078125 15.6171875 10.8125 19.25 C10.82925781 20.44367188 10.84601563 21.63734375 10.86328125 22.8671875 C10.20320648 29.24081272 7.27798247 33.26371276 2.5 37.375 C-2.17802435 40.21743061 -6.12473399 40.84093495 -11.5 40.75 C-12.18578125 40.76160156 -12.8715625 40.77320313 -13.578125 40.78515625 C-19.15257235 40.75324148 -23.17195882 39.47421662 -27.328125 35.7265625 C-31.83421229 30.25488508 -34.01284353 26.05256578 -33.80859375 18.84375 C-32.90062307 11.57998456 -30.08791361 6.08785912 -24.37890625 1.53125 C-17.26659727 -2.84555552 -7.65733605 -3.50049648 0 0 Z M-20.875 7.75 C-23.54812224 13.71311884 -23.4826577 20.28884065 -21.95703125 26.6328125 C-20.53627094 30.25928358 -18.64893189 33.10077141 -15.5 35.375 C-11.65654948 36.42321378 -9.46369801 36.76924009 -5.75 35.25 C-1.69280449 31.86900374 -0.38307219 28.7818283 0.3125 23.625 C0.76425715 17.16583395 0.18372949 11.20456899 -3.75 5.875 C-9.90712851 0.27761045 -15.36349856 2.23849856 -20.875 7.75 Z " fill="#FFCD2F" transform="translate(337.5,328.625)"/>
<path d="M0 0 C3.42240053 2.46731201 6.70362374 5.15501218 8.6875 8.9375 C8.58007812 11.38989258 8.58007812 11.38989258 7.6875 13.9375 C5.40258789 15.4230957 5.40258789 15.4230957 2.41015625 16.61328125 C1.33958984 17.04833984 0.26902344 17.48339844 -0.83398438 17.93164062 C-2.52491211 18.58422852 -2.52491211 18.58422852 -4.25 19.25 C-5.93512695 19.9315918 -5.93512695 19.9315918 -7.65429688 20.62695312 C-15.9331532 23.9375 -15.9331532 23.9375 -18.3125 23.9375 C-15.08904411 29.11805411 -13.04588218 32.20158941 -7.0625 33.8125 C-2.56899386 33.96228354 0.7223757 33.00665682 4.6875 30.9375 C5.3475 30.2775 6.0075 29.6175 6.6875 28.9375 C8.8125 29.3125 8.8125 29.3125 10.6875 29.9375 C10.51953125 31.70703125 10.51953125 31.70703125 9.6875 33.9375 C7.32421875 35.82421875 7.32421875 35.82421875 4.375 37.625 C3.40949219 38.22699219 2.44398437 38.82898438 1.44921875 39.44921875 C-3.89474968 42.32906595 -9.51773584 42.82504152 -15.43359375 41.44140625 C-22.06895237 39.2212579 -26.11750276 35.16774461 -29.3125 28.9375 C-31.8953941 21.89324335 -29.9393168 14.65301424 -27.3125 7.9375 C-21.92565826 -1.59306615 -9.6771173 -3.10398102 0 0 Z M-20.3125 8.9375 C-21.26177623 12.87021581 -21.5943632 15.0919104 -20.3125 18.9375 C-14.59039404 17.06986819 -8.93588249 15.08460968 -3.3125 12.9375 C-3.5971076 9.52220886 -4.10910671 8.15251576 -6.5 5.625 C-12.50033909 2.02479655 -16.25032515 3.48257948 -20.3125 8.9375 Z " fill="#FFCD2F" transform="translate(74.3125,328.0625)"/>
<path d="M0 0 C2.72901638 2.08199607 4.21462231 4.18159344 5.6640625 7.26953125 C5.58374023 9.79370117 5.58374023 9.79370117 4.6640625 12.26953125 C2.37915039 13.75512695 2.37915039 13.75512695 -0.61328125 14.9453125 C-1.68384766 15.38037109 -2.75441406 15.81542969 -3.85742188 16.26367188 C-5.54834961 16.91625977 -5.54834961 16.91625977 -7.2734375 17.58203125 C-8.95856445 18.26362305 -8.95856445 18.26362305 -10.67773438 18.95898438 C-18.9565907 22.26953125 -18.9565907 22.26953125 -21.3359375 22.26953125 C-17.9480877 27.71428985 -15.95848714 30.54606928 -9.7109375 32.26953125 C-4.90813727 32.77414066 -1.57887651 30.68765537 2.46484375 28.30078125 C4.6640625 27.26953125 4.6640625 27.26953125 7.6640625 28.26953125 C7.30416825 30.99528769 6.90589688 32.056717 4.80859375 33.90234375 C-2.77702753 38.75612487 -9.22637874 41.64250531 -18.37890625 39.875 C-24.29076021 38.1025873 -28.18479274 34.53012003 -31.3359375 29.26953125 C-34.15224336 21.50440809 -33.84542276 13.7276617 -30.3984375 6.23046875 C-24.14110676 -3.98114739 -9.93401554 -5.78462222 0 0 Z M-22.3359375 6.26953125 C-23.53866569 8.67498763 -23.43665222 10.21950078 -23.3984375 12.89453125 C-23.38941406 13.71179688 -23.38039063 14.5290625 -23.37109375 15.37109375 C-23.35949219 15.99757813 -23.34789062 16.6240625 -23.3359375 17.26953125 C-17.47933844 15.60800113 -11.8769241 13.79911209 -6.3359375 11.26953125 C-6.6205451 7.85424011 -7.13254421 6.48454701 -9.5234375 3.95703125 C-14.90435474 0.7284809 -18.47395827 1.40629815 -22.3359375 6.26953125 Z " fill="#FFCD2F" transform="translate(452.3359375,329.73046875)"/>
<path d="M0 0 C5.27322153 1.82534591 7.79691086 4.60719203 11 9 C12.41145792 13.23437376 12.8892485 16.86261347 11.12890625 21.09375 C8.23470769 26.17994813 5.42557727 28.79298552 0 31 C-4.26151971 31.79284088 -7.35134509 31.33680159 -11.25 29.3125 C-15.4402289 25.78889842 -18.58565392 22.56609332 -19.23828125 16.94921875 C-19.41951525 11.42635099 -18.79936836 8.29928525 -15 4 C-10.20662513 -0.2360057 -6.14861504 -0.89575147 0 0 Z " fill="#ED1B24" transform="translate(57,21)"/>
<path d="M0 0 C0.33 -0.66 0.66 -1.32 1 -2 C2.32 -2 3.64 -2 5 -2 C5.08082094 -0.04233719 5.13910778 1.91626728 5.1875 3.875 C5.23970703 5.51082031 5.23970703 5.51082031 5.29296875 7.1796875 C5.19628906 8.11039062 5.09960938 9.04109375 5 10 C4.01 10.66 3.02 11.32 2 12 C1.5875 11.43410156 1.175 10.86820312 0.75 10.28515625 C-2.55084352 5.91161266 -2.55084352 5.91161266 -7.17578125 3.24609375 C-9.56457326 2.92968103 -9.56457326 2.92968103 -13 3 C-13.66 3 -14.32 3 -15 3 C-15 4.98 -15 6.96 -15 9 C-14.3709375 9.31453125 -13.741875 9.6290625 -13.09375 9.953125 C-11.30885295 10.84557352 -9.52505972 11.74023201 -7.7421875 12.63671875 C-6.06827947 13.4689038 -4.38745705 14.28758372 -2.6953125 15.08203125 C4.59273721 18.53354159 4.59273721 18.53354159 7 22 C8.12491289 26.64963994 8.43816997 28.83884959 6.75 33.3125 C4.23625022 37.17290145 2.42989141 39.24316169 -2.125 40.3125 C-8.20293556 41.52411461 -13.25020123 39.91659959 -19 38 C-19.33 38.66 -19.66 39.32 -20 40 C-21.32 40 -22.64 40 -24 40 C-24 34.72 -24 29.44 -24 24 C-20 25 -20 25 -18.76171875 26.7421875 C-18.40722656 27.44601562 -18.05273438 28.14984375 -17.6875 28.875 C-15.9495391 31.84825003 -14.63576833 33.62853789 -11.5 35.125 C-8.12055667 36.22098449 -8.12055667 36.22098449 -5.125 35.5 C-2.80580478 34.1478463 -2.80580478 34.1478463 -2 31.5625 C-1.74505371 29.03508626 -1.74505371 29.03508626 -3.1015625 27.51953125 C-6.54387129 24.76426763 -10.73596612 23.39383494 -14.7734375 21.6953125 C-18.77070487 19.59505337 -21.95153138 17.09693725 -24 13 C-24.12102942 8.03779376 -24.07520313 4.16008759 -20.625 0.4375 C-13.68924185 -3.36065327 -7.17479885 -2.39159962 0 0 Z " fill="#FFCD2F" transform="translate(487,329)"/>
<path d="M0 0 C0 18.15 0 36.3 0 55 C1.98 55.66 3.96 56.32 6 57 C6 57.99 6 58.98 6 60 C-1.59 60 -9.18 60 -17 60 C-16.67 58.68 -16.34 57.36 -16 56 C-14.68 55.34 -13.36 54.68 -12 54 C-12 38.82 -12 23.64 -12 8 C-13.32 7.67 -14.64 7.34 -16 7 C-16 5.68 -16 4.36 -16 3 C-14.27318563 2.49193553 -12.54342021 1.99389533 -10.8125 1.5 C-9.84957031 1.2215625 -8.88664062 0.943125 -7.89453125 0.65625 C-5 0 -5 0 0 0 Z " fill="#FFCD2F" transform="translate(296,309)"/>
<path d="M0 0 C1.55859375 1.16796875 1.55859375 1.16796875 3.55859375 4.16796875 C3.01805321 8.70850929 3.01805321 8.70850929 1.55859375 10.16796875 C-0.56640625 10.66796875 -0.56640625 10.66796875 -3.44140625 10.16796875 C-5.1171875 8.640625 -5.1171875 8.640625 -6.87890625 6.73046875 C-9.25693256 4.17667528 -10.23213386 3.23772621 -13.62890625 2.10546875 C-17.39007447 2.17999479 -17.39007447 2.17999479 -20.44140625 4.16796875 C-23.94730191 10.1780756 -24.60123757 16.43873407 -22.9375 23.22265625 C-21.36263048 27.41630881 -19.2659171 29.90803052 -15.44140625 32.16796875 C-9.80322082 33.90279504 -6.55469559 32.69802267 -1.5546875 30.078125 C0.55859375 29.16796875 0.55859375 29.16796875 4.55859375 29.16796875 C4.23700646 32.16945011 3.57706354 33.15002667 1.37109375 35.29296875 C-4.4654121 39.18397265 -11.60143343 40.72337547 -18.5859375 39.921875 C-23.20024767 38.92490167 -26.78224377 37.23145362 -30.44140625 34.16796875 C-34.4724455 27.49590379 -35.34560655 20.85875108 -34.44140625 13.16796875 C-32.49674734 7.38240676 -29.87357438 2.27206482 -24.44140625 -0.83203125 C-16.29270136 -4.09151321 -7.73716862 -4.1983389 0 0 Z " fill="#FFCD2F" transform="translate(121.44140625,329.83203125)"/>
<path d="M0 0 C3.52534685 1.71747667 4.75517776 3.68826974 6.4375 7.1875 C5.71870865 10.62172534 4.32787399 13.15353312 1.4375 15.1875 C-1 15.625 -1 15.625 -3.5625 15.1875 C-6.56198609 13.07975302 -7.43267778 11.86546049 -8.125 8.25 C-7.27132659 3.60222254 -4.93303684 0.36095391 0 0 Z " fill="#FFCD2F" transform="translate(405.5625,308.8125)"/>
</svg>
